<?xml version="1.0" encoding="UTF-8" standalone="no"?>
<svg
   xmlns:dc="http://purl.org/dc/elements/1.1/"
   xmlns:cc="http://creativecommons.org/ns#"
   xmlns:rdf="http://www.w3.org/1999/02/22-rdf-syntax-ns#"
   xmlns:svg="http://www.w3.org/2000/svg"
   xmlns="http://www.w3.org/2000/svg"
   xmlns:sodipodi="http://sodipodi.sourceforge.net/DTD/sodipodi-0.dtd"
   xmlns:inkscape="http://www.inkscape.org/namespaces/inkscape"
   sodipodi:docname="SPOT ON RECORDS REFRESHED.svg"
   inkscape:version="1.0 (4035a4fb49, 2020-05-01)"
   id="svg8"
   version="1.1"
   viewBox="0 0 139.63719 66.853959"
   height="66.853958mm"
   width="139.63719mm">
  <defs
     id="defs2">
    <filter
       height="1.5393403"
       y="-0.2696701"
       width="1.0759087"
       x="-0.037954357"
       id="filter1121"
       style="color-interpolation-filters:sRGB"
       inkscape:collect="always">
      <feGaussianBlur
         id="feGaussianBlur1123"
         stdDeviation="1.5356262"
         inkscape:collect="always" />
    </filter>
  </defs>
  <sodipodi:namedview
     fit-margin-bottom="0"
     fit-margin-right="0"
     fit-margin-left="0"
     fit-margin-top="0"
     inkscape:window-maximized="1"
     inkscape:window-y="317"
     inkscape:window-x="1042"
     inkscape:window-height="1017"
     inkscape:window-width="1920"
     inkscape:snap-nodes="true"
     showgrid="false"
     inkscape:document-rotation="0"
     inkscape:current-layer="layer1"
     inkscape:document-units="mm"
     inkscape:cy="111.65605"
     inkscape:cx="256.82784"
     inkscape:zoom="0.98994949"
     inkscape:pageshadow="2"
     inkscape:pageopacity="0.0"
     borderopacity="1.0"
     bordercolor="#666666"
     pagecolor="#ffffff"
     id="base" />
  <metadata
     id="metadata5">
    <rdf:RDF>
      <cc:Work
         rdf:about="">
        <dc:format>image/svg+xml</dc:format>
        <dc:type
           rdf:resource="http://purl.org/dc/dcmitype/StillImage" />
        <dc:title></dc:title>
      </cc:Work>
    </rdf:RDF>
  </metadata>
  <g
     transform="translate(-41.098456,-95.931469)"
     id="layer1"
     inkscape:groupmode="layer"
     inkscape:label="Layer 1">
    <g
       id="g862">
      <path
         inkscape:export-ydpi="312.51999"
         inkscape:export-xdpi="312.51999"
         id="path839"
         style="font-style:normal;font-variant:normal;font-weight:normal;font-stretch:normal;font-size:45.9294px;line-height:1.25;font-family:Cocogoose;-inkscape-font-specification:Cocogoose;fill:#ffffff;fill-opacity:1;stroke:none;stroke-width:1.51063"
         d="m 47.363288,130.00529 7.711635,-0.84371 c -0.32024,-0.24044 -0.674302,-0.48088 -0.956562,-0.72132 -0.52368,-0.4834 -0.956799,-0.8663 -1.299209,-1.14828 -0.281983,-0.2417 -0.523312,-0.42304 -0.724729,-0.54389 -0.201418,-0.12078 -0.392524,-0.18084 -0.573801,-0.18084 -0.261843,0 -0.604291,0.15066 -1.027265,0.45279 z" />
      <path
         inkscape:export-ydpi="312.51999"
         inkscape:export-xdpi="312.51999"
         id="path874"
         style="font-style:normal;font-variant:normal;font-weight:normal;font-stretch:normal;font-size:45.9294px;line-height:1.25;font-family:Cocogoose;-inkscape-font-specification:Cocogoose;fill:#ffffff;fill-opacity:1;stroke:none;stroke-width:1.51063"
         d="m 62.547927,95.931469 c -2.437142,0 -4.642499,0.302002 -6.616382,0.906255 -1.973882,0.584103 -3.665904,1.41966 -5.075823,2.507314 -1.389773,1.087642 -2.467345,2.397452 -3.232726,3.928222 -0.745242,1.53076 -1.117689,3.23255 -1.117689,5.10574 0,1.77247 0.302001,3.38358 0.906252,4.83379 0.604249,1.43004 1.510252,2.74963 2.718752,3.95813 1.208501,1.18836 2.719186,2.2757 4.531937,3.26264 1.812751,0.96682 3.92744,1.87349 6.344441,2.71944 0.543825,0.18129 1.188955,0.41283 1.934198,0.69482 0.745241,0.26184 1.460136,0.58407 2.144953,0.96675 0.684817,0.3827 1.258824,0.82559 1.72208,1.32912 0.481721,0.48172 0.721698,1.03372 0.72337,1.65546 l 11.938996,-1.306 c -0.123667,-1.55106 -0.412073,-2.96461 -1.000751,-4.12607 -0.725103,-1.47033 -1.741998,-2.72924 -3.051208,-3.7766 -1.309209,-1.06752 -2.870113,-1.98398 -4.682863,-2.74936 -1.792612,-0.78554 -3.756637,-1.53042 -5.891657,-2.23537 -1.107792,-0.36256 -2.084239,-0.69523 -2.930187,-0.99735 -0.825809,-0.32227 -1.521159,-0.65427 -2.085126,-0.99668 -0.563969,-0.36255 -0.986634,-0.74545 -1.268616,-1.14827 -0.281983,-0.42298 -0.422871,-0.9161 -0.422871,-1.48007 0,-0.56395 0.130429,-1.03752 0.392276,-1.42022 0.261844,-0.40284 0.614744,-0.72507 1.05786,-0.96676 0.443116,-0.2417 0.956451,-0.41327 1.54056,-0.51397 0.584107,-0.12089 1.208336,-0.18083 1.873009,-0.18083 0.644536,0 1.279215,0.10035 1.903605,0.30185 0.624391,0.18128 1.218622,0.42328 1.78259,0.72541 0.563965,0.28199 1.087752,0.60421 1.571153,0.96676 0.503539,0.36254 0.956882,0.71477 1.359717,1.05716 l 0.271941,0.24204 c 0.281984,0.2417 0.533766,0.44259 0.755324,0.60372 0.241701,0.16112 0.503254,0.24203 0.785237,0.24203 0.342405,0 0.684858,-0.17157 1.027264,-0.51398 l 4.62236,-4.92421 c 0.261841,-0.28199 0.453631,-0.53377 0.574481,-0.75533 0.140991,-0.22154 0.211435,-0.46356 0.211435,-0.7254 0,-0.26185 -0.140889,-0.57361 -0.422872,-0.93617 -0.261841,-0.36255 -0.624517,-0.74544 -1.087773,-1.14828 -0.463259,-0.40284 -1.007269,-0.81572 -1.63166,-1.238686 C 74.119262,99.355388 73.474812,98.932727 72.789996,98.529877 71.15852,97.62351 69.496492,96.968598 67.804592,96.565771 66.132835,96.142794 64.38082,95.931469 62.547927,95.931469 Z" />
      <path
         inkscape:export-ydpi="312.51999"
         inkscape:export-xdpi="312.51999"
         id="path871"
         style="font-style:normal;font-variant:normal;font-weight:normal;font-stretch:normal;font-size:45.9294px;line-height:1.25;font-family:Cocogoose;-inkscape-font-specification:Cocogoose;fill:#ffffff;fill-opacity:1;stroke:none;stroke-width:1.51063"
         d="m 87.578957,96.898228 c -0.443119,0 -0.775792,0.131167 -0.997354,0.392961 -0.221558,0.241701 -0.33177,0.573696 -0.33177,0.996661 v 27.46357 l 29.758087,-3.25584 c 0.35479,-0.32269 0.7378,-0.61608 1.05853,-0.97424 1.20851,-1.34949 2.13474,-2.89017 2.77928,-4.62235 0.66467,-1.73219 0.99735,-3.50511 0.99735,-5.31787 0,-1.22863 -0.15134,-2.43663 -0.45347,-3.625 -0.30212,-1.2085 -0.74501,-2.35651 -1.32913,-3.44416 -0.56396,-1.08765 -1.25931,-2.09478 -2.08512,-3.02129 -0.82582,-0.94666 -1.75203,-1.752908 -2.77927,-2.417574 -1.02721,-0.684826 -2.15501,-1.218382 -3.38364,-1.601071 -1.22865,-0.382689 -2.53777,-0.573797 -3.92755,-0.573797 z m 10.363081,9.577162 h 6.404942 c 0.72511,0 1.36957,0.15134 1.93352,0.45347 0.58413,0.30212 1.07722,0.69479 1.48005,1.17819 0.40284,0.46327 0.70552,0.99682 0.90694,1.60106 0.22155,0.60426 0.33177,1.20826 0.33177,1.81251 0,0.64453 -0.11026,1.26944 -0.33177,1.87369 -0.20142,0.60425 -0.5041,1.13782 -0.90694,1.60107 -0.38268,0.46326 -0.86602,0.84615 -1.45012,1.14827 -0.58413,0.28199 -1.23834,0.42288 -1.96345,0.42288 h -6.404942 z" />
      <path
         inkscape:export-ydpi="312.51999"
         inkscape:export-xdpi="312.51999"
         id="path868"
         style="font-style:normal;font-variant:normal;font-weight:normal;font-stretch:normal;font-size:45.9294px;line-height:1.25;font-family:Cocogoose;-inkscape-font-specification:Cocogoose;fill:#ffffff;fill-opacity:1;stroke:none;stroke-width:1.51063"
         d="m 148.41949,96.233325 c -2.13501,0 -4.18971,0.282461 -6.1636,0.846415 -1.95373,0.543827 -3.78665,1.318711 -5.49869,2.325802 -1.71203,0.986938 -3.27295,2.185848 -4.68286,3.595768 -1.38978,1.40993 -2.58801,2.9806 -3.59509,4.71278 -1.00708,1.71204 -1.78266,3.55541 -2.32648,5.5293 -0.54384,1.95374 -0.81584,3.99799 -0.81584,6.133 0,0.70789 0.0755,1.39357 0.13531,2.08376 l 11.60042,-1.26861 c -0.0171,-0.28477 -0.0734,-0.55424 -0.0734,-0.84576 0,-1.6516 0.28177,-3.20206 0.84574,-4.65226 0.56397,-1.47035 1.34931,-2.74948 2.35639,-3.83712 1.02723,-1.08765 2.23591,-1.94411 3.62568,-2.56851 1.38978,-0.62438 2.92068,-0.93617 4.59244,-0.93617 1.67177,0 3.20267,0.31179 4.59245,0.93617 1.40991,0.6244 2.61793,1.48086 3.62501,2.56851 1.02722,1.08764 1.82299,2.36677 2.38697,3.83712 0.37227,0.95723 0.57577,1.97427 0.70229,3.01925 l 11.60792,-1.26997 c -0.14041,-1.09091 -0.34782,-2.15984 -0.64791,-3.19941 -0.54384,-1.97389 -1.3194,-3.81726 -2.32648,-5.5293 -0.98694,-1.73218 -2.18517,-3.30285 -3.59509,-4.71278 -1.40992,-1.40992 -2.9715,-2.60883 -4.68354,-3.595768 -1.71205,-1.007091 -3.55472,-1.781975 -5.52862,-2.325802 -1.97389,-0.563954 -4.01813,-0.846415 -6.133,-0.846415 z" />
      <path
         transform="matrix(0.26458333,0,0,0.26458333,26.459679,45.430443)"
         d="m 564.47266,260.70703 -490.527348,53.05274 3.617188,8.05859 484.23242,-53.23828 -0.0469,16.41211 2.13281,-0.19336 z"
         style="opacity:0.867742;fill:#000000;stroke:none;stroke-width:1.32604px;stroke-linecap:butt;stroke-linejoin:miter;stroke-opacity:1;filter:url(#filter1121)"
         id="path915" />
      <path
         inkscape:export-ydpi="312.51999"
         inkscape:export-xdpi="312.51999"
         id="path876"
         style="font-style:normal;font-variant:normal;font-weight:normal;font-stretch:normal;font-size:45.9294px;line-height:1.25;font-family:Cocogoose;-inkscape-font-specification:Cocogoose;fill:#008080;fill-opacity:1;stroke:none;stroke-width:1.51063"
         d="m 83.24952,126.01897 -11.938996,1.306 c 4e-6,0.002 0.0014,0.005 0.0014,0.007 0,0.56398 -0.09068,1.09821 -0.271944,1.60176 -0.161133,0.50353 -0.44291,0.94643 -0.84574,1.32912 -0.402835,0.38269 -0.956619,0.69513 -1.661576,0.93686 -0.684816,0.22154 -1.5406,0.33177 -2.567825,0.33177 -1.107792,0 -2.165817,-0.19112 -3.172901,-0.57381 -1.007084,-0.38269 -2.023979,-0.91626 -3.051203,-1.60106 -0.32938,-0.22283 -0.589775,-0.44549 -0.886537,-0.66831 l -7.711635,0.8437 -2.096681,2.00014 c -0.463259,0.42299 -0.695497,0.8052 -0.695497,1.14761 0,0.30212 0.232238,0.70524 0.695497,1.20879 0.02014,0.0202 0.03969,0.0404 0.05982,0.0605 0.02014,0 0.04038,0.0203 0.0605,0.0605 0.02014,0.0202 0.04038,0.0397 0.0605,0.0598 0.02014,0 0.04037,0.0203 0.0605,0.0605 l 0.09042,0.091 c 0.322266,0.3424 0.755385,0.79506 1.299209,1.35904 0.563968,0.56395 1.248869,1.13797 2.054534,1.72207 1.933603,1.38978 4.018291,2.49802 6.254016,3.32383 2.235728,0.82581 4.511527,1.23871 6.827821,1.23871 2.457281,0 4.753987,-0.34245 6.889003,-1.02727 2.135019,-0.70496 3.987476,-1.69187 5.558523,-2.96079 1.591196,-1.26893 2.840329,-2.79983 3.746702,-4.59244 0.906375,-1.81275 1.359717,-3.827 1.359717,-6.04259 0,-0.44006 -0.08473,-0.80919 -0.117614,-1.22169 z" />
      <path
         inkscape:export-ydpi="312.51999"
         inkscape:export-xdpi="312.51999"
         id="path841"
         style="font-style:normal;font-variant:normal;font-weight:normal;font-stretch:normal;font-size:45.9294px;line-height:1.25;font-family:Cocogoose;-inkscape-font-specification:Cocogoose;fill:#008080;fill-opacity:1;stroke:none;stroke-width:1.51063"
         d="m 119.78714,122.02139 -29.758073,3.25585 v 14.71282 c 0,0.44311 0.120667,0.77579 0.362362,0.99735 0.241702,0.20142 0.563926,0.30185 0.966761,0.30185 h 8.97275 c 0.92652,0 1.39032,-0.43311 1.39032,-1.2992 v -14.38105 h 9.1543 c 2.05446,-0.0202 3.92781,-0.44281 5.61971,-1.26861 1.24289,-0.62143 2.30987,-1.42584 3.29187,-2.31901 z" />
      <path
         inkscape:export-ydpi="312.51999"
         inkscape:export-xdpi="312.51999"
         id="path843"
         style="font-style:normal;font-variant:normal;font-weight:normal;font-stretch:normal;font-size:45.9294px;line-height:1.25;font-family:Cocogoose;-inkscape-font-specification:Cocogoose;fill:#008080;fill-opacity:1;stroke:none;stroke-width:1.51063"
         d="m 175.11335,115.96862 -11.60789,1.26997 c 0.0651,0.53817 0.14344,1.07158 0.14344,1.63302 0,1.67177 -0.28179,3.23266 -0.84574,4.68287 -0.56398,1.45019 -1.35976,2.71956 -2.38698,3.8072 -1.00709,1.06752 -2.21509,1.91352 -3.62502,2.53792 -1.38976,0.60424 -2.92068,0.90625 -4.59244,0.90625 -1.67176,0 -3.20267,-0.30201 -4.59245,-0.90625 -1.38977,-0.6244 -2.59845,-1.4704 -3.62567,-2.53792 -1.00709,-1.08764 -1.79243,-2.35701 -2.35639,-3.8072 -0.46563,-1.19733 -0.69113,-2.48877 -0.77233,-3.83712 l -11.60043,1.26861 c 0.12052,1.39139 0.31703,2.75974 0.68055,4.07916 0.54383,1.95372 1.31939,3.78664 2.32648,5.49869 1.00708,1.6919 2.20532,3.24303 3.59509,4.65295 1.40992,1.38978 2.97081,2.588 4.68286,3.59509 1.71203,1.00708 3.54495,1.78264 5.49869,2.32648 1.97389,0.54381 4.02859,0.81584 6.1636,0.81584 2.11488,0 4.15912,-0.27203 6.13301,-0.81584 1.97388,-0.54384 3.81656,-1.3194 5.52861,-2.32648 1.71204,-1.00709 3.27362,-2.20531 4.68353,-3.59509 1.40993,-1.40992 2.60815,-2.96105 3.59509,-4.65295 1.00709,-1.71205 1.78265,-3.54497 2.32648,-5.49869 0.56398,-1.97391 0.84575,-4.02792 0.84575,-6.16292 0,-0.99898 -0.0743,-1.97429 -0.19784,-2.93359 z" />
      <g
         aria-label="RECORD"
         id="text1228"
         style="font-style:normal;font-weight:normal;font-size:11.9198px;line-height:1.25;font-family:sans-serif;letter-spacing:8.6121px;word-spacing:0px;fill:#000000;fill-opacity:1;stroke:none;stroke-width:0.297996">
        <path
           d="m 70.381857,160.52067 q -0.154958,0.0238 -0.309915,0.0358 -0.154957,0.0119 -0.321835,0.0238 v 2.20516 h -2.014446 v -8.72529 h 2.014446 q 0.750948,0.0119 1.406537,0.27415 0.655589,0.26224 1.144301,0.70327 0.500631,0.44103 0.774787,1.0251 0.286075,0.58407 0.286075,1.25158 0,0.70327 -0.297995,1.31118 -0.297995,0.59599 -0.834386,1.03702 l 1.931007,3.12299 h -2.37204 z m -0.63175,-1.96677 q 0.321835,-0.0119 0.60791,-0.10728 0.297995,-0.10727 0.512552,-0.27415 0.226476,-0.16688 0.345674,-0.38144 0.131118,-0.22647 0.131118,-0.47679 0,-0.25031 -0.131118,-0.46487 -0.119198,-0.21456 -0.345674,-0.38143 -0.214557,-0.16688 -0.512552,-0.26224 -0.286075,-0.10728 -0.60791,-0.1192 z"
           style="font-style:normal;font-variant:normal;font-weight:normal;font-stretch:normal;font-family:'The Bold Font';-inkscape-font-specification:'The Bold Font';fill:#008080;stroke-width:0.297996"
           id="path844" />
        <path
           d="m 89.141058,156.05074 h -3.599779 v 1.3231 h 2.920351 v 2.01445 h -2.920351 v 1.38269 h 3.599779 v 2.01445 h -5.614226 v -8.73721 l 5.614226,-0.0119 z"
           style="font-style:normal;font-variant:normal;font-weight:normal;font-stretch:normal;font-family:'The Bold Font';-inkscape-font-specification:'The Bold Font';fill:#008080;stroke-width:0.297996"
           id="path846" />
        <path
           d="m 102.56727,162.77351 q -0.84631,0 -1.65685,-0.30991 -0.79863,-0.32184 -1.4423,-0.96551 -0.61983,-0.63175 -0.953584,-1.41845 -0.321835,-0.79863 -0.321835,-1.6807 0,-0.89398 0.321835,-1.68069 0.333754,-0.79862 0.953584,-1.41845 0.64367,-0.64367 1.45422,-0.96551 0.81054,-0.32183 1.64493,-0.32183 0.8463,0 1.64493,0.32183 0.81055,0.32184 1.45422,0.96551 l -1.41846,1.41845 q -0.34567,-0.34567 -0.78671,-0.51255 -0.44103,-0.1788 -0.89398,-0.1788 -0.45295,0 -0.89399,0.1788 -0.42911,0.16688 -0.77478,0.51255 -0.33376,0.34568 -0.51256,0.77479 -0.17879,0.42911 -0.17879,0.9059 0,0.4768 0.17879,0.90591 0.1788,0.41719 0.51256,0.76287 0.34567,0.34567 0.77478,0.52447 0.44104,0.16687 0.89399,0.16687 0.45295,0 0.89398,-0.16687 0.44104,-0.1788 0.78671,-0.52447 l 1.41846,1.43037 q -0.64367,0.64367 -1.4423,0.96551 -0.79863,0.30991 -1.65685,0.30991 z"
           style="font-style:normal;font-variant:normal;font-weight:normal;font-stretch:normal;font-family:'The Bold Font';-inkscape-font-specification:'The Bold Font';fill:#008080;stroke-width:0.297996"
           id="path848" />
        <path
           d="m 118.65252,154.02438 q 0.90591,0 1.70454,0.34567 0.79862,0.34568 1.39461,0.94167 0.59599,0.58407 0.94167,1.38269 0.34567,0.79863 0.34567,1.70453 0,0.90591 -0.34567,1.70454 -0.34568,0.79862 -0.94167,1.39461 -0.59599,0.58407 -1.39461,0.92975 -0.79863,0.34567 -1.70454,0.34567 -0.9059,0 -1.70453,-0.34567 -0.79862,-0.34568 -1.39461,-0.92975 -0.58407,-0.59599 -0.92975,-1.39461 -0.34567,-0.79863 -0.34567,-1.70454 0,-0.9059 0.34567,-1.70453 0.34568,-0.79862 0.92975,-1.38269 0.59599,-0.59599 1.39461,-0.94167 0.79863,-0.34567 1.70453,-0.34567 z m 0,6.73468 q 0.48872,0 0.91783,-0.17879 0.42911,-0.19072 0.75095,-0.51255 0.32183,-0.32184 0.50063,-0.75095 0.19071,-0.42911 0.19071,-0.91783 0,-0.48871 -0.19071,-0.91782 -0.1788,-0.42911 -0.50063,-0.75095 -0.32184,-0.32183 -0.75095,-0.50063 -0.42911,-0.19072 -0.91783,-0.19072 -0.48871,0 -0.91782,0.19072 -0.42911,0.1788 -0.75095,0.50063 -0.32183,0.32184 -0.51255,0.75095 -0.1788,0.42911 -0.1788,0.91782 0,0.48872 0.1788,0.91783 0.19072,0.42911 0.51255,0.75095 0.32184,0.32183 0.75095,0.51255 0.42911,0.17879 0.91782,0.17879 z"
           style="font-style:normal;font-variant:normal;font-weight:normal;font-stretch:normal;font-family:'The Bold Font';-inkscape-font-specification:'The Bold Font';fill:#008080;stroke-width:0.297996"
           id="path850" />
        <path
           d="m 134.88585,160.52067 q -0.15496,0.0238 -0.30992,0.0358 -0.15496,0.0119 -0.32183,0.0238 v 2.20516 h -2.01445 v -8.72529 h 2.01445 q 0.75095,0.0119 1.40653,0.27415 0.65559,0.26224 1.1443,0.70327 0.50064,0.44103 0.77479,1.0251 0.28608,0.58407 0.28608,1.25158 0,0.70327 -0.298,1.31118 -0.29799,0.59599 -0.83438,1.03702 l 1.931,3.12299 h -2.37204 z m -0.63175,-1.96677 q 0.32183,-0.0119 0.60791,-0.10728 0.29799,-0.10727 0.51255,-0.27415 0.22648,-0.16688 0.34567,-0.38144 0.13112,-0.22647 0.13112,-0.47679 0,-0.25031 -0.13112,-0.46487 -0.11919,-0.21456 -0.34567,-0.38143 -0.21456,-0.16688 -0.51255,-0.26224 -0.28608,-0.10728 -0.60791,-0.1192 z"
           style="font-style:normal;font-variant:normal;font-weight:normal;font-stretch:normal;font-family:'The Bold Font';-inkscape-font-specification:'The Bold Font';fill:#008080;stroke-width:0.297996"
           id="path852" />
        <path
           d="m 149.90223,154.00054 q 0.87014,0.0477 1.63301,0.41719 0.77479,0.36952 1.33502,0.96551 0.57215,0.59599 0.89398,1.38269 0.33376,0.78671 0.33376,1.68069 0,0.88207 -0.32184,1.65686 -0.32183,0.76286 -0.89398,1.34693 -0.56023,0.58407 -1.3231,0.94167 -0.76287,0.34567 -1.65685,0.39335 h -2.01445 v -8.79681 h 2.01445 z m 0,6.75852 q 0.46487,-0.0477 0.85822,-0.23839 0.40528,-0.20264 0.69135,-0.50063 0.298,-0.30992 0.46488,-0.71519 0.16687,-0.40527 0.16687,-0.85823 0,-0.46487 -0.16687,-0.88206 -0.16688,-0.42911 -0.46488,-0.75095 -0.29799,-0.33375 -0.69135,-0.53639 -0.39335,-0.21456 -0.85822,-0.26224 z"
           style="font-style:normal;font-variant:normal;font-weight:normal;font-stretch:normal;font-family:'The Bold Font';-inkscape-font-specification:'The Bold Font';fill:#008080;stroke-width:0.297996"
           id="path854" />
      </g>
    </g>
  </g>
</svg>
